<svg width="116" height="53" viewBox="0 0 116 53" fill="none" xmlns="http://www.w3.org/2000/svg">
<path d="M56.8216 19.8062C56.8216 13.7941 51.9088 9.87314 44.6994 9.87314C37.868 9.87314 30.7168 14.7816 30.7168 25.7021C30.7168 34.0377 35.775 40.195 44.496 40.195C49.4088 40.195 54.8158 37.4068 56.1821 35.4899C56.1821 35.4899 55.2518 31.8885 52.6937 31.8885C51.3565 31.8885 50.3681 32.4112 49.2634 32.8469C48.1297 33.3116 46.7634 33.7473 45.0192 33.7473C42.5773 33.7473 38.3913 32.7888 38.3913 27.5319C38.3913 27.5319 40.368 28.1127 44.8448 28.1127C54.496 28.1418 56.8216 24.0756 56.8216 19.8062ZM44.9901 16.379C48.3041 16.379 49.903 18.1797 49.903 19.8352C49.903 21.7812 48.1588 23.03 44.9901 23.03C40.368 23.03 38.6238 22.3911 38.6238 22.362C38.5948 19.6029 40.8041 16.379 44.9901 16.379Z" fill="#5D3EBC"/>
<path d="M75.0383 34.0686C71.7244 34.0686 70.0092 31.2803 69.6895 30.0605C69.3697 28.8697 69.1662 27.1561 69.1662 25.3844L69.2243 16.3808H71.6371C73.5848 16.3808 75.0674 15.7999 76.143 14.6672C77.1895 13.5345 77.7418 11.9951 77.7418 10.1073H69.2534L69.1953 6.12828C69.1953 4.85034 69.1953 3.8338 69.2243 3.04962C69.2534 2.26543 69.2825 1.65551 69.3115 1.1908C69.3406 0.697057 69.3988 0.29044 69.4278 0C66.8406 0 64.8929 0.551839 63.5266 1.65551C62.1603 2.75918 61.4917 4.5599 61.4917 7.11577L61.4336 27.0399C61.4336 35.2013 65.329 40.5163 72.7709 40.5163C76.4337 40.5163 79.1081 38.5413 79.1081 35.5498C79.1081 34.5042 78.9628 33.9524 78.8756 33.6039C78.2069 33.7781 77.0151 34.0686 75.0383 34.0686Z" fill="#5D3EBC"/>
<path d="M93.8974 34.6411C92.2404 34.6411 91.1939 33.4503 91.1939 31.4753V17.0986C91.1939 15.8206 91.1939 14.8041 91.2229 14.0199C91.252 13.2357 91.2811 12.6258 91.3101 12.1611C91.3392 11.6674 91.3974 11.2607 91.4264 10.9703C88.8101 10.9703 86.8334 11.5221 85.4671 12.6258C84.1008 13.7295 83.4322 15.5302 83.4322 18.0861L83.374 32.7242C83.374 37.9521 86.7461 40.8565 90.9904 40.6823C93.6648 40.5661 95.9904 39.3172 95.9904 36.4999C95.9904 35.3382 95.7869 34.3797 95.7869 34.3797C95.2055 34.525 94.7695 34.6411 93.8974 34.6411Z" fill="#5D3EBC"/>
<path d="M112.453 10.9703C110.855 10.9703 109.227 11.1446 107.599 11.5221C105.971 11.8707 104.488 12.5677 103.18 13.5843C101.872 14.6008 100.796 15.9949 99.9824 17.7956C99.1685 19.5964 98.7324 21.8908 98.7324 24.7371V32.9566C98.7324 35.4834 99.0522 37.836 100.593 38.9977C102.25 40.2757 104.198 40.3338 106.785 40.3338C106.756 40.0724 106.698 39.3462 106.669 38.8525C106.639 38.3878 106.581 37.7779 106.581 36.9937C106.552 36.2095 106.552 35.193 106.552 33.915V23.3721C106.552 20.8743 106.959 17.6795 111.349 17.3019C113.82 17.0986 116 16.1401 116 13.4681C116 12.8582 115.855 11.6674 115.535 10.9703H112.453Z" fill="#5D3EBC"/>
<path d="M13.7211 9.87314C4.70934 9.87314 0 16.1757 0 23.8433C0 30.93 4.33143 37.5811 12.2094 37.5811C16.2792 37.5811 18.663 35.8384 19.2444 35.3447V38.888C19.2444 42.9542 17.6455 45.6843 13.5466 45.6843C11.5699 45.6843 10.0873 45.1325 8.75008 44.4935C7.52914 43.9126 6.62797 43.2446 5.4361 43.2446C2.38374 43.2446 1.54071 47.0203 1.54071 47.0494C3.83724 50.0119 9.09892 52.1902 13.5176 52.1902C22.2095 52.1902 27.0061 47.1365 27.0061 37.0873C27.0061 37.0873 27.0061 26.98 27.0061 25.3245C26.977 16.1466 22.9072 9.87314 13.7211 9.87314ZM13.692 30.7557C10.3199 30.7557 7.73263 28.6355 7.73263 23.9594C7.73263 18.9639 10.378 16.379 13.692 16.379C16.9478 16.379 19.3316 18.354 19.3316 23.5819C19.3316 28.926 16.7443 30.7557 13.692 30.7557Z" fill="#5D3EBC"/>
<path d="M85.4089 8.10327C86.0194 8.39371 86.659 8.56797 87.3566 8.56797C88.9555 8.56797 90.2055 7.81283 91.1358 6.30254C91.5137 5.60549 91.7172 4.87939 91.7172 4.0952C91.7172 3.3691 91.5427 2.67205 91.1939 2.00404C90.8451 1.36507 90.3218 0.871324 89.6241 0.522797C89.0136 0.174269 88.4032 0 87.7345 0C87.0078 0 86.281 0.20331 85.5834 0.609925C84.8857 1.01654 84.3624 1.59742 83.9554 2.32352C83.5775 2.96248 83.374 3.71763 83.374 4.53086C83.374 5.25696 83.5484 5.95401 83.8973 6.56394C84.2461 7.2029 84.7694 7.7257 85.4089 8.10327Z" fill="#5D3EBC"/>
</svg>
