<svg width="160" height="47" viewBox="0 0 160 47" fill="none" xmlns="http://www.w3.org/2000/svg">
<path d="M153.161 47.4193H5.89083C2.65087 47.4193 0 44.752 0 41.492V5.92742C0 2.66733 2.65087 0 5.89083 0H153.161C156.401 0 159.052 2.66733 159.052 5.92742V41.492C159.052 44.752 156.401 47.4193 153.161 47.4193Z" fill="black"/>
<path d="M153.161 0.948386C155.891 0.948386 158.11 3.18183 158.11 5.92742V41.492C158.11 44.2374 155.891 46.4709 153.161 46.4709H5.89083C3.16219 46.4709 0.942533 44.2374 0.942533 41.492V5.92742C0.942533 3.18183 3.16219 0.948386 5.89083 0.948386H153.161ZM153.161 0H5.89083C2.65087 0 0 2.66733 0 5.92742V41.492C0 44.752 2.65087 47.4193 5.89083 47.4193H153.161C156.401 47.4193 159.052 44.752 159.052 41.492V5.92742C159.052 2.66733 156.401 0 153.161 0Z" fill="#A6A6A6"/>
<path d="M55.8665 12.1431C55.8665 13.1365 55.5744 13.9272 54.9888 14.5176C54.3242 15.2194 53.4572 15.5703 52.3921 15.5703C51.3719 15.5703 50.5036 15.2146 49.7908 14.5033C49.0767 13.7909 48.7197 12.9088 48.7197 11.8562C48.7197 10.8023 49.0767 9.92028 49.7908 9.209C50.5036 8.49652 51.3719 8.14087 52.3921 8.14087C52.8988 8.14087 53.3829 8.24046 53.8425 8.43962C54.3031 8.63878 54.6719 8.90313 54.9475 9.23389L54.3266 9.85982C53.8589 9.29672 53.2144 9.01576 52.391 9.01576C51.6463 9.01576 51.003 9.27894 50.4599 9.80529C49.918 10.3305 49.647 11.0145 49.647 11.855C49.647 12.6955 49.918 13.3795 50.4611 13.9071C51.0043 14.4335 51.6475 14.6966 52.3921 14.6966C53.1815 14.6966 53.8401 14.4322 54.3667 13.9023C54.7084 13.5574 54.9063 13.0772 54.9593 12.462H52.3921V11.6072H55.817C55.8511 11.7922 55.8665 11.9712 55.8665 12.1431Z" fill="white" stroke="white" stroke-width="0.156418" stroke-miterlimit="10"/>
<path d="M61.2976 9.17204H58.0789V11.428H60.9819V12.2828H58.0789V14.5375H61.2976V15.4112H57.1705V8.29834H61.2976V9.17204Z" fill="white" stroke="white" stroke-width="0.156418" stroke-miterlimit="10"/>
<path d="M65.1279 15.4112H64.2185V9.17204H62.2439V8.29834H67.1014V9.17204H65.1268V15.4112H65.1279Z" fill="white" stroke="white" stroke-width="0.156418" stroke-miterlimit="10"/>
<path d="M70.6172 15.4112V8.29834H71.5255V15.4112H70.6172Z" fill="white" stroke="white" stroke-width="0.156418" stroke-miterlimit="10"/>
<path d="M75.5534 15.4112H74.6438V9.17204H72.6692V8.29834H77.5268V9.17204H75.5521V15.4112H75.5534Z" fill="white" stroke="white" stroke-width="0.156418" stroke-miterlimit="10"/>
<path d="M86.7237 14.4925C86.0286 15.2109 85.165 15.5701 84.1317 15.5701C83.0985 15.5701 82.2348 15.2109 81.541 14.4925C80.8459 13.7741 80.4995 12.8944 80.4995 11.8548C80.4995 10.8151 80.8459 9.93549 81.541 9.21709C82.2348 8.49868 83.0985 8.13831 84.1317 8.13831C85.159 8.13831 86.0215 8.49987 86.719 9.22183C87.4164 9.94379 87.7652 10.8211 87.7652 11.8548C87.7652 12.8944 87.4177 13.7741 86.7237 14.4925ZM82.2113 13.8962C82.7344 14.4296 83.3742 14.6952 84.1317 14.6952C84.8892 14.6952 85.529 14.4285 86.0521 13.8962C86.5753 13.3628 86.838 12.6823 86.838 11.8548C86.838 11.0273 86.5753 10.3457 86.0521 9.81339C85.5302 9.27992 84.8892 9.01437 84.1317 9.01437C83.3742 9.01437 82.7344 9.28111 82.2113 9.81339C81.6894 10.3469 81.4267 11.0273 81.4267 11.8548C81.4267 12.6823 81.6894 13.3639 82.2113 13.8962Z" fill="white" stroke="white" stroke-width="0.156418" stroke-miterlimit="10"/>
<path d="M89.04 15.4112V8.29834H90.1452L93.5807 13.831H93.6195L93.5807 12.4606V8.29834H94.489V15.4112H93.5407L89.946 9.60949H89.9072L89.946 10.9799V15.4112H89.04Z" fill="white" stroke="white" stroke-width="0.156418" stroke-miterlimit="10"/>
<path d="M80.2756 25.7866C77.5045 25.7866 75.246 27.9063 75.246 30.8285C75.246 33.7317 77.5045 35.8704 80.2756 35.8704C83.0466 35.8704 85.3052 33.7317 85.3052 30.8285C85.3052 27.9063 83.0466 25.7866 80.2756 25.7866ZM80.2756 33.8847C78.7569 33.8847 77.4468 32.6244 77.4468 30.8285C77.4468 29.0135 78.7569 27.7723 80.2756 27.7723C81.7942 27.7723 83.1032 29.0135 83.1032 30.8285C83.1032 32.6233 81.7942 33.8847 80.2756 33.8847ZM69.3022 25.7866C66.5311 25.7866 64.2726 27.9063 64.2726 30.8285C64.2726 33.7317 66.5311 35.8704 69.3022 35.8704C72.0732 35.8704 74.3317 33.7317 74.3317 30.8285C74.333 27.9063 72.0732 25.7866 69.3022 25.7866ZM69.3022 33.8847C67.7835 33.8847 66.4746 32.6244 66.4746 30.8285C66.4746 29.0135 67.7846 27.7723 69.3022 27.7723C70.8208 27.7723 72.1298 29.0135 72.1298 30.8285C72.1309 32.6233 70.8208 33.8847 69.3022 33.8847ZM56.2505 27.3337V29.4722H61.3377C61.1858 30.6755 60.7875 31.554 60.1797 32.1657C59.4397 32.9102 58.2817 33.7317 56.2505 33.7317C53.1189 33.7317 50.6706 31.1913 50.6706 28.0402C50.6706 24.8892 53.1189 22.3488 56.2505 22.3488C57.94 22.3488 59.1734 23.0174 60.0842 23.8768L61.5841 22.3677C60.3128 21.1455 58.6233 20.2089 56.2505 20.2089C51.9608 20.2089 48.3544 23.7227 48.3544 28.0391C48.3544 32.3554 51.9608 35.8691 56.2505 35.8691C58.5655 35.8691 60.3128 35.1057 61.6794 33.6725C63.0838 32.2594 63.5209 30.2724 63.5209 28.6685C63.5209 28.1718 63.4832 27.713 63.4067 27.3313H56.2505V27.3337ZM109.631 28.9945C109.214 27.8671 107.941 25.7855 105.341 25.7855C102.76 25.7855 100.616 27.8292 100.616 30.8273C100.616 33.6535 102.741 35.8691 105.588 35.8691C107.885 35.8691 109.214 34.456 109.764 33.6345L108.056 32.4881C107.486 33.3287 106.708 33.8823 105.588 33.8823C104.468 33.8823 103.672 33.3665 103.159 32.3543L109.859 29.566L109.631 28.9945ZM102.797 30.6755C102.741 28.7279 104.297 27.7344 105.417 27.7344C106.289 27.7344 107.029 28.1729 107.277 28.8036L102.797 30.6755ZM97.3496 35.5644H99.5516V20.7448H97.3496V35.5644ZM93.7432 26.9128H93.6678C93.1741 26.3213 92.2257 25.7855 91.0299 25.7855C88.5239 25.7855 86.2276 28.0012 86.2276 30.8463C86.2276 33.6725 88.5239 35.8691 91.0299 35.8691C92.2257 35.8691 93.1741 35.3345 93.6678 34.7228H93.7432V35.4484C93.7432 37.3771 92.7182 38.4084 91.0664 38.4084C89.7186 38.4084 88.8833 37.434 88.5416 36.6136L86.6248 37.4162C87.1749 38.7534 88.637 40.3954 91.0664 40.3954C93.6478 40.3954 95.8309 38.8672 95.8309 35.1437V26.0913H93.7432V26.9128ZM91.2196 33.8847C89.7009 33.8847 88.4297 32.6055 88.4297 30.8474C88.4297 29.0716 89.7009 27.7723 91.2196 27.7723C92.7194 27.7723 93.8951 29.0704 93.8951 30.8474C93.8951 32.6044 92.7194 33.8847 91.2196 33.8847ZM119.944 20.7448H114.677V35.5644H116.874V29.9501H119.943C122.38 29.9501 124.775 28.1753 124.775 25.348C124.775 22.5206 122.381 20.7448 119.944 20.7448ZM120.001 27.8873H116.874V22.8076H120.001C121.645 22.8076 122.578 24.1767 122.578 25.348C122.578 26.4956 121.645 27.8873 120.001 27.8873ZM133.587 25.7593C131.996 25.7593 130.347 26.4648 129.665 28.0283L131.618 28.8487C132.035 28.0283 132.812 27.7617 133.626 27.7617C134.763 27.7617 135.919 28.4481 135.938 29.6679V29.8209C135.54 29.592 134.687 29.2483 133.645 29.2483C131.542 29.2483 129.4 30.4111 129.4 32.5854C129.4 34.5687 131.125 35.8455 133.058 35.8455C134.536 35.8455 135.351 35.178 135.861 34.3968H135.937V35.5408H138.059V29.8588C138.059 27.227 136.107 25.7593 133.587 25.7593ZM133.322 33.8812C132.602 33.8812 131.596 33.5184 131.596 32.6233C131.596 31.4793 132.848 31.0407 133.927 31.0407C134.893 31.0407 135.348 31.2505 135.935 31.5362C135.766 32.909 134.591 33.8812 133.322 33.8812ZM145.789 26.0831L143.269 32.5084H143.195L140.58 26.0831H138.212L142.134 35.063L139.898 40.0586H142.191L148.236 26.0831H145.789ZM125.988 35.5644H128.187V20.7448H125.988V35.5644Z" fill="white"/>
<path d="M12.2942 8.93615C11.9513 9.30128 11.7487 9.86794 11.7487 10.6017V36.8199C11.7487 37.5549 11.9513 38.1203 12.2942 38.4855L12.3813 38.5709L26.9776 23.8839V23.7108V23.5378L12.3813 8.84961L12.2942 8.93615Z" fill="url(#paint0_linear)"/>
<path d="M31.8437 28.7823L26.979 23.885V23.712V23.5389L31.8448 18.6429L31.9543 18.7057L37.7191 22.0013C39.3663 22.9426 39.3663 24.4825 37.7191 25.4251L31.9543 28.7207L31.8437 28.7823Z" fill="url(#paint1_linear)"/>
<path d="M31.9542 28.7182L26.9789 23.7108L12.2942 38.4855C12.8373 39.064 13.7327 39.1351 14.7424 38.5578L31.9542 28.7182Z" fill="url(#paint2_linear)"/>
<path d="M31.9543 18.7033L14.7437 8.86387C13.7339 8.28653 12.8386 8.35885 12.2954 8.93619L26.9789 23.7109L31.9543 18.7033Z" fill="url(#paint3_linear)"/>
<path opacity="0.2" d="M31.8447 28.6082L14.7436 38.3847C13.787 38.9313 12.9316 38.8957 12.3825 38.3978L12.2942 38.4867L12.3814 38.5721C12.9304 39.07 13.7857 39.1068 14.7424 38.5591L31.9531 28.7196L31.8447 28.6082Z" fill="black"/>
<path opacity="0.12" d="M12.2942 38.3125C11.9513 37.9473 11.7487 37.3806 11.7487 36.6469V36.8199C11.7487 37.5537 11.9513 38.1205 12.2942 38.4855L12.3825 38.3966L12.2942 38.3125Z" fill="black"/>
<path opacity="0.12" d="M37.7188 25.2497L31.8445 28.6082L31.954 28.7183L37.7188 25.4227C38.5424 24.9521 38.9535 24.3321 38.9535 23.712C38.8841 24.2728 38.4646 24.8229 37.7188 25.2497Z" fill="black"/>
<path opacity="0.25" d="M14.7434 9.03692L37.7187 22.1721C38.4657 22.5989 38.884 23.1489 38.9534 23.7108C38.9534 23.0908 38.5423 22.4697 37.7187 21.999L14.7434 8.86384C13.0962 7.92256 11.7496 8.7038 11.7496 10.6018V10.776C11.7496 8.87806 13.0975 8.09564 14.7434 9.03692Z" fill="white"/>
<defs>
<linearGradient id="paint0_linear" x1="25.6835" y1="10.3253" x2="5.78866" y2="30.0974" gradientUnits="userSpaceOnUse">
<stop stop-color="#00A0FF"/>
<stop offset="0.0066" stop-color="#00A1FF"/>
<stop offset="0.2601" stop-color="#00BEFF"/>
<stop offset="0.5122" stop-color="#00D2FF"/>
<stop offset="0.7604" stop-color="#00DFFF"/>
<stop offset="1" stop-color="#00E3FF"/>
</linearGradient>
<linearGradient id="paint1_linear" x1="39.8626" y1="23.7114" x2="11.3546" y2="23.7114" gradientUnits="userSpaceOnUse">
<stop stop-color="#FFE000"/>
<stop offset="0.4087" stop-color="#FFBD00"/>
<stop offset="0.7754" stop-color="#FFA500"/>
<stop offset="1" stop-color="#FF9C00"/>
</linearGradient>
<linearGradient id="paint2_linear" x1="29.2502" y1="26.4318" x2="2.27115" y2="53.2442" gradientUnits="userSpaceOnUse">
<stop stop-color="#FF3A44"/>
<stop offset="1" stop-color="#C31162"/>
</linearGradient>
<linearGradient id="paint3_linear" x1="8.59739" y1="0.209013" x2="20.6448" y2="12.1819" gradientUnits="userSpaceOnUse">
<stop stop-color="#32A071"/>
<stop offset="0.0685" stop-color="#2DA771"/>
<stop offset="0.4762" stop-color="#15CF74"/>
<stop offset="0.8009" stop-color="#06E775"/>
<stop offset="1" stop-color="#00F076"/>
</linearGradient>
</defs>
</svg>
