<svg width="178" height="180" viewBox="0 0 178 180" fill="none" xmlns="http://www.w3.org/2000/svg">
<g clip-path="url(#clip0)">
<path d="M88.9535 177.742C138.081 177.742 177.907 137.953 177.907 88.8709C177.907 39.7889 138.081 0 88.9535 0C39.8258 0 0 39.7889 0 88.8709C0 137.953 39.8258 177.742 88.9535 177.742Z" fill="#F0EFFF"/>
<path d="M86.1833 148.582C80.4437 153.051 66.8663 139.156 52.2251 120.369C37.5838 101.581 27.4281 85.0171 33.1677 80.5474C38.9074 76.0775 58.3681 85.39 73.007 104.177C87.6461 122.964 91.9229 144.109 86.1833 148.582Z" fill="#F9C076"/>
<path opacity="0.3" d="M53.9892 118.993C39.4268 103.188 28.615 83.5142 33.6963 80.823C34.0046 80.6586 33.4807 80.3042 33.177 80.5381C33.1747 80.5404 33.1701 80.5427 33.1678 80.5451C27.4281 85.0173 37.5862 101.579 52.2251 120.366C66.8641 139.154 80.4437 153.049 86.1834 148.58L86.5148 148.301C87.9313 146.555 88.2581 145.256 87.9683 145.462C81.0372 150.372 69.3166 135.628 53.9892 118.993Z" fill="#B84A00"/>
<path d="M64.1911 110.372C72.5248 121.066 79.2196 131.414 83.6425 139.563C83.8489 139.943 84.389 139.723 84.229 139.322C81.2757 131.899 74.8406 120.707 65.8787 109.206C56.9563 97.7551 47.5911 88.6486 40.9635 83.7526C40.6158 83.4956 40.2588 83.9611 40.5787 84.2576C47.4844 90.6682 55.9061 99.7422 64.1911 110.372Z" fill="#F5AC4D"/>
<path opacity="0.3" d="M66.1176 108.677C74.7827 119.798 80.8005 131.316 83.9926 140.677C84.1317 141.087 84.8805 140.767 84.8341 140.316C83.9138 131.344 78.7838 118.261 69.3513 106.155C59.9189 94.0495 48.4858 85.8787 40.0108 82.7915C39.5843 82.6363 39.0929 83.2849 39.4544 83.5188C47.7534 88.9058 57.45 97.5559 66.1176 108.677Z" fill="#B84A00"/>
<path d="M64.8959 109.874C73.2341 120.575 79.5139 131.258 83.3459 139.876C83.5243 140.279 84.2847 139.885 84.1734 139.45C82.0894 131.343 76.3543 119.594 67.3855 108.087C58.4562 96.6295 48.3885 88.0558 40.887 83.8314C40.4929 83.609 39.9157 84.2482 40.2611 84.5216C47.7603 90.4782 56.6062 99.2372 64.8959 109.874Z" fill="#FFD6AC"/>
<path d="M68.4589 116.858C68.3801 117.08 68.1228 117.213 67.8864 117.156C67.6499 117.098 67.5224 116.871 67.6035 116.648C67.643 116.54 67.8261 116.333 68.0045 116.148C68.1575 115.991 68.4265 116.058 68.4519 116.257C68.4797 116.493 68.496 116.751 68.4589 116.858Z" fill="#FFD6AC"/>
<path d="M43.4973 89.8854C43.4347 90.0568 43.2377 90.1587 43.0568 90.1146C42.8737 90.0707 42.7764 89.8947 42.839 89.7233C42.8691 89.64 43.0105 89.4802 43.1496 89.3366C43.2678 89.2138 43.4764 89.2648 43.495 89.4199C43.5135 89.6052 43.5274 89.8021 43.4973 89.8854Z" fill="#FFD6AC"/>
<path d="M74.0828 110.93C74.0202 111.102 73.8231 111.204 73.6423 111.159C73.4592 111.115 73.3618 110.94 73.4244 110.768C73.4546 110.685 73.5959 110.525 73.735 110.382C73.8533 110.259 74.0618 110.31 74.0804 110.466C74.099 110.651 74.1129 110.848 74.0828 110.93Z" fill="#FFD6AC"/>
<path d="M57.9509 105.219C57.7353 105.122 57.6218 104.858 57.6983 104.627C57.7748 104.395 58.0112 104.288 58.2268 104.383C58.3311 104.43 58.5235 104.629 58.6951 104.824C58.8411 104.988 58.7529 105.252 58.5513 105.261C58.3126 105.268 58.0552 105.265 57.9509 105.219Z" fill="#FFD6AC"/>
<path d="M54.7635 93.7067C54.5479 93.6095 54.4343 93.3455 54.5108 93.1139C54.5873 92.8823 54.8237 92.7758 55.0393 92.8707C55.1436 92.917 55.3361 93.1162 55.5076 93.3107C55.6536 93.4751 55.5656 93.7392 55.3639 93.7484C55.1251 93.7577 54.8678 93.7531 54.7635 93.7067Z" fill="#FFD6AC"/>
<path d="M52.0279 98.5749C51.9491 98.7973 51.6918 98.9316 51.4554 98.8737C51.2189 98.8158 51.0914 98.5889 51.1725 98.3665C51.212 98.2576 51.3951 98.0516 51.5737 97.8662C51.7267 97.7087 51.9955 97.7759 52.021 97.9751C52.0489 98.2114 52.0674 98.4684 52.0279 98.5749Z" fill="#FFD6AC"/>
<path d="M75.5083 128.279C75.4295 128.502 75.1722 128.636 74.9358 128.579C74.6993 128.52 74.5718 128.294 74.6529 128.071C74.6924 127.962 74.8755 127.756 75.0539 127.571C75.2069 127.414 75.4759 127.481 75.5013 127.68C75.5291 127.914 75.5477 128.17 75.5083 128.279Z" fill="#FFD6AC"/>
<path d="M78.6332 118.34C78.814 118.46 78.8627 118.706 78.7398 118.884C78.617 119.065 78.3713 119.111 78.1904 118.99C78.1024 118.932 77.9656 118.729 77.8474 118.534C77.7477 118.37 77.8868 118.164 78.0792 118.193C78.3041 118.231 78.5451 118.282 78.6332 118.34Z" fill="#E69636"/>
<path d="M71.3079 107.32C71.2546 107.522 71.0344 107.64 70.8165 107.587C70.5986 107.533 70.4687 107.327 70.5221 107.125C70.5475 107.028 70.6982 106.84 70.8443 106.676C70.9695 106.535 71.2175 106.596 71.2546 106.778C71.2986 106.991 71.3334 107.222 71.3079 107.32Z" fill="#E69636"/>
<path d="M63.2247 96.831C63.1713 97.0325 62.9511 97.1506 62.7332 97.0973C62.5154 97.0441 62.3855 96.8379 62.4389 96.6365C62.4643 96.5391 62.615 96.3516 62.7611 96.1871C62.8862 96.0458 63.1343 96.1061 63.1713 96.289C63.2154 96.5021 63.2525 96.7337 63.2247 96.831Z" fill="#E69636"/>
<path d="M73.4776 123.317C73.6584 123.437 73.7071 123.682 73.5842 123.861C73.4613 124.041 73.2156 124.088 73.0348 123.968C72.9468 123.909 72.81 123.706 72.6917 123.511C72.592 123.347 72.7311 123.141 72.9235 123.17C73.1507 123.208 73.3919 123.258 73.4776 123.317Z" fill="#E69636"/>
<path d="M55.3222 100.916C55.503 101.037 55.5517 101.282 55.4288 101.461C55.3059 101.641 55.0602 101.688 54.8794 101.567C54.7913 101.509 54.6546 101.305 54.5363 101.111C54.4366 100.946 54.5757 100.74 54.7681 100.77C54.993 100.807 55.234 100.858 55.3222 100.916Z" fill="#E69636"/>
<path d="M64.3233 112.663C64.3187 112.881 64.1379 113.053 63.92 113.045C63.7021 113.038 63.5306 112.858 63.5352 112.64C63.5375 112.533 63.6348 112.308 63.7368 112.108C63.8227 111.934 64.0707 111.94 64.1472 112.119C64.2376 112.327 64.3256 112.556 64.3233 112.663Z" fill="#E69636"/>
<path d="M47.4596 60.7271L47.2996 60.6299C45.3664 59.4673 43.8318 57.7488 42.8953 55.6969L37.531 43.9525C37.2784 43.4013 37.0003 42.8617 36.6989 42.3383L30.8989 32.3125C30.426 31.4949 29.7538 30.8094 28.947 30.3183L24.0094 27.3239C21.9301 26.0617 20.173 24.3363 18.8771 22.2797L16.3063 18.2012L16.7328 17.9326L16.0976 16.9251C15.6619 16.2349 14.7508 16.0265 14.06 16.4619L8.19517 20.1513C7.50437 20.5866 7.29573 21.4969 7.73154 22.1869L8.3667 23.1944L8.79324 22.9281L11.3408 26.9695C12.6506 29.0492 13.455 31.4092 13.6845 33.8549L14.22 39.5521C14.3034 40.4299 14.5909 41.2776 15.0615 42.0234L20.9981 51.4447C21.5522 52.3225 22.1758 53.154 22.8666 53.9297L30.9429 63.0153C32.517 64.7871 33.4883 67.0127 33.7131 69.3727C33.8777 71.112 34.4503 72.7864 35.3821 74.264C36.0289 75.2923 37.3874 75.6004 38.4166 74.9519L50.4685 67.3694C51.4978 66.7232 51.8061 65.366 51.157 64.3377C50.2228 62.8672 48.9571 61.6281 47.4596 60.7271Z" fill="#D0F0F9"/>
<path d="M16.2755 18.2205L16.702 17.9518L16.0669 16.9444C15.631 16.2542 14.72 16.0458 14.0292 16.4812L8.16667 20.1706C7.47588 20.6059 7.26725 21.5162 7.70306 22.2063L8.33822 23.2137L8.76475 22.9451L16.2755 18.2205Z" fill="#DF3933"/>
<path d="M16.2632 18.2271L8.76402 22.9444L9.24695 23.7107L16.7462 18.9933L16.2632 18.2271Z" fill="#940600"/>
<path d="M13.6814 33.855L14.2169 39.5546C14.3004 40.4323 14.5877 41.28 15.0584 42.0258L20.9951 51.4471C21.5491 52.3249 22.1728 53.1563 22.8636 53.9321L30.9399 63.02C32.5139 64.7918 33.4851 67.0174 33.71 69.3774C33.8746 71.1167 34.4472 72.7912 35.3791 74.2688C36.0258 75.2971 37.3842 75.6051 38.4135 74.9566L50.4654 67.3741C51.4946 66.7279 51.803 65.3708 51.1539 64.3425C50.222 62.8649 48.9563 61.6259 47.4588 60.7249L47.2989 60.6277C45.3655 59.465 43.8309 57.7466 42.8944 55.6947L37.5303 43.9503C37.2776 43.3991 36.9994 42.8595 36.6981 42.336L30.8981 32.3103C30.4252 31.4927 29.753 30.8071 28.9463 30.3161L24.0087 27.3216C22.2167 26.2355 20.6659 24.8018 19.442 23.1112L11.8432 27.8265C12.8562 29.6908 13.4844 31.7381 13.6814 33.855Z" fill="#8D0000"/>
<path opacity="0.3" d="M47.4589 60.7271L47.299 60.6299C45.3656 59.4672 43.831 57.7489 42.8945 55.6969L37.5304 43.9525C37.2777 43.4013 36.9995 42.8617 36.6981 42.3383L30.8983 32.3125C30.4253 31.4949 29.7531 30.8094 28.9463 30.3184L24.0088 27.3239C21.9293 26.0617 20.1722 24.3363 18.8765 22.2797L16.3056 18.2012L16.7322 17.9326L16.097 16.9251C15.6612 16.2349 14.7502 16.0265 14.0594 16.4619L11.9452 17.7913C12.6059 17.4971 13.3987 17.7218 13.7974 18.3517L14.4325 19.3592L14.006 19.6278L16.5768 23.7063C17.8726 25.7629 19.6298 27.4906 21.7092 28.7505L26.6468 31.745C27.4558 32.2361 28.1257 32.9215 28.5987 33.7391L34.3986 43.765C34.7022 44.2906 34.9804 44.828 35.2308 45.3792L40.5949 57.1235C41.5314 59.1732 43.066 60.894 44.9994 62.0565L45.1594 62.1539C46.6568 63.0547 47.9225 64.2938 48.8544 65.7713C49.5012 66.7996 49.1928 68.1569 48.1659 68.803L38.1841 75.0816C38.2629 75.0446 38.3394 75.0051 38.4136 74.9566L50.4655 67.3741C51.4948 66.7278 51.8031 65.3707 51.154 64.3424C50.2221 62.8672 48.9564 61.6281 47.4589 60.7271Z" fill="#360504"/>
<path opacity="0.1" d="M26.7418 47.7253C26.1577 48.0889 25.3904 47.9082 25.0264 47.3246L20.3298 39.7676C19.9683 39.184 20.1468 38.4174 20.731 38.0538C21.3151 37.6902 22.0824 37.8708 22.4463 38.4545L27.1428 46.0091C27.5045 46.5951 27.326 47.3616 26.7418 47.7253Z" fill="white"/>
<path opacity="0.1" d="M30.1796 45.5923C29.5955 45.9558 28.8282 45.7752 28.4643 45.1916L23.7677 37.6369C23.4061 37.0533 23.5846 36.2867 24.1688 35.923C24.7529 35.5595 25.5202 35.7401 25.8842 36.3237L30.5806 43.8784C30.9423 44.462 30.7638 45.2286 30.1796 45.5923Z" fill="white"/>
<path opacity="0.1" d="M33.6174 43.4593C33.0332 43.8229 32.2659 43.6423 31.902 43.0586L27.2054 35.504C26.8438 34.9203 27.0223 34.1538 27.6064 33.7901C28.1906 33.4265 28.9579 33.6072 29.3219 34.1908L34.0184 41.7455C34.38 42.3291 34.2016 43.0957 33.6174 43.4593Z" fill="white"/>
<path d="M28.8513 34.4964L19.238 43.7348C18.7489 44.205 18.6562 44.9554 19.0178 45.5297L20.972 48.6308C21.4564 49.3997 22.5228 49.5294 23.1789 48.8995L32.7921 39.6611C33.2813 39.1909 33.374 38.4405 33.0123 37.8662L31.0582 34.7651C30.5736 33.9985 29.505 33.8688 28.8513 34.4964Z" fill="#C32F26"/>
<path opacity="0.4" d="M11.4398 25.1699L13.8136 28.9891C14.5693 30.2049 15.0375 31.5782 15.1813 33.0026L15.8674 39.7791C15.9393 40.4901 16.1734 41.1757 16.5513 41.7825L21.315 49.4461C21.7208 50.0968 22.5761 50.2983 23.2275 49.893C23.8789 49.4877 24.0805 48.6331 23.6749 47.98L18.7906 40.1243C18.4915 39.6426 18.2807 39.1099 18.1716 38.554L16.8016 31.5876C16.5815 30.4735 16.1619 29.4059 15.5614 28.4425L12.9466 24.2344C12.687 23.8174 12.1423 23.6901 11.725 23.9495C11.3077 24.2065 11.1802 24.7531 11.4398 25.1699Z" fill="white"/>
<path opacity="0.8" d="M14.2494 26.328L12.9466 24.2344C12.687 23.8174 12.1423 23.6901 11.725 23.9495C11.3077 24.2088 11.1802 24.7531 11.4398 25.1699L12.7426 27.2636L14.2494 26.328Z" fill="white"/>
<path d="M117.137 44.5015L115.521 46.1574L106.942 37.8153L108.56 36.1616L111.208 34.5034L136.972 8.20781L138.569 5.52823L140.184 3.87231L148.764 12.2145L147.146 13.8704L144.498 15.5286L118.734 41.8242L117.137 44.5015Z" fill="#8841CB"/>
<path d="M117.137 44.5015L115.521 46.1575L106.942 37.8153L108.56 36.1617L117.137 44.5015Z" fill="#924FDA"/>
<path d="M138.569 5.52823L140.184 3.87231L148.764 12.2145L147.146 13.8704L138.569 5.52823Z" fill="#603CA6"/>
<path opacity="0.2" d="M140.143 3.83063L138.527 5.48655L137.743 6.79971L139.053 9.06474C140.486 11.5428 140.179 14.6555 138.292 16.8094L113.526 44.2166L115.477 46.1157L117.093 44.4598L118.69 41.7802L144.456 15.4869L147.106 13.8287L148.722 12.1728L140.143 3.83063Z" fill="#462C80"/>
<path d="M137.247 9.45843C137.442 9.64834 137.444 9.95868 137.254 10.1532L112.635 35.3371C112.419 35.5572 112.167 35.7401 111.889 35.8768L110.343 36.6341C110.139 36.773 109.865 36.7476 109.689 36.5762C109.437 36.3284 109.502 35.9022 109.821 35.7447L111.342 34.9852C111.61 34.8508 111.856 34.6725 112.066 34.4571L136.549 9.4677C136.739 9.27316 137.052 9.26852 137.247 9.45843Z" fill="#924FDA"/>
<path opacity="0.5" d="M137.393 11.4271L113.648 35.6058C113.4 35.8583 113.403 36.2659 113.657 36.516L114.641 37.4794C114.893 37.7273 115.301 37.725 115.552 37.4701L125.039 27.8102C125.287 27.5578 125.285 27.1502 125.031 26.9L124.97 26.8399C124.718 26.5921 124.713 26.1844 124.961 25.9296L138.318 12.3302C138.569 12.0755 138.563 11.6679 138.309 11.4177C138.052 11.1699 137.641 11.1745 137.393 11.4271Z" fill="#D1B3FF"/>
<path opacity="0.3" d="M139.868 8.03876C139.641 8.27036 139.644 8.64324 139.876 8.87252L144.71 13.611L144.233 13.9353C143.684 14.3081 143.174 14.7343 142.711 15.2067L118.287 40.0734C118.118 40.2447 118.12 40.5226 118.293 40.6917C118.468 40.8608 118.746 40.8585 118.915 40.6847L143.72 15.2599C143.872 15.1049 144.048 14.9751 144.243 14.8779L145.875 14.0626C146.192 13.9051 146.259 13.479 146.007 13.2312C145.99 13.215 145.971 13.208 145.954 13.1941L145.961 13.1872L140.701 8.03181C140.469 7.80253 140.095 7.80485 139.868 8.03876Z" fill="#1C1240"/>
<path d="M159.285 72.0362L130.787 115.53C130.554 115.884 130.295 116.207 130.012 116.503C129.982 116.531 129.959 116.564 129.927 116.593C129.818 116.702 129.702 116.806 129.591 116.906C129.266 117.191 128.916 117.443 128.547 117.649C128.415 117.733 128.282 117.805 128.144 117.872C128.049 117.92 127.956 117.964 127.857 118.006C125.828 118.897 123.396 118.779 121.412 117.483L106.664 107.837C104.851 106.651 103.975 104.566 104.246 102.554C104.262 102.447 104.279 102.343 104.304 102.239C104.332 102.084 104.367 101.926 104.413 101.773C104.413 101.773 104.413 101.773 104.408 101.771C104.513 101.417 104.658 101.069 104.84 100.726C104.904 100.604 104.975 100.488 105.051 100.372C105.062 100.347 105.074 100.328 105.088 100.307L134.312 55.7039C136.218 52.7951 139.238 50.7987 142.659 50.185L142.792 50.1595C145.261 49.7148 147.806 48.7281 149.679 47.0537C149.994 46.7735 150.296 46.4678 150.569 46.1459L153.085 43.186L163.257 49.8399L161.548 53.3278C160.262 55.961 160.298 59.2033 160.978 62.0543L161.008 62.1863C161.527 64.3633 161.453 66.6237 160.821 68.7336C160.477 69.8892 159.962 71.0056 159.285 72.0362Z" fill="#EEEBDC"/>
<path opacity="0.34" d="M160.823 68.7313C160.732 67.337 159.875 57.6169 153.457 53.4204C150.423 51.4356 149.621 49.0733 149.679 47.0514C149.994 46.7712 150.296 46.4655 150.569 46.1436L153.085 43.1837L163.257 49.8375L161.548 53.3254C160.262 55.9586 160.298 59.201 160.978 62.052L161.008 62.184C161.529 64.361 161.455 66.6214 160.823 68.7313Z" fill="#D6D2BC"/>
<path opacity="0.23" d="M124.11 74.0811C124.11 74.0811 124.831 73.7545 125.825 74.4054C127.328 75.3873 133.635 78.5811 135.615 76.0265C137.594 73.472 145.462 61.7045 145.33 58.5687C145.191 55.2707 140.585 52.7626 137.604 55.1155C134.623 57.4662 124.11 74.0811 124.11 74.0811Z" fill="#D7D4C1"/>
<path opacity="0.23" d="M146.501 88.725C146.501 88.725 146.513 87.9329 145.517 87.2845C144.016 86.3025 138.563 81.8026 140.114 78.9702C141.667 76.1377 149.313 64.2243 152.242 63.0918C155.323 61.9013 159.466 65.1159 158.502 68.7845C157.538 72.453 146.501 88.725 146.501 88.725Z" fill="#CBC7B2"/>
<path d="M145.223 59.018C145.5 57.332 144.187 55.5695 142.6 54.7404C142.6 54.7404 140.309 53.4898 137.899 54.9326C137.39 55.236 136.146 56.57 136.262 56.5931C137.474 56.8409 138.548 57.1027 139.336 57.413C141.102 58.1101 142.331 59.7521 142.525 61.6397C142.667 63.02 142.604 64.7315 141.886 66.3225C141.886 66.3225 144.815 61.517 145.223 59.018Z" fill="#D6D2BC"/>
<path d="M151.847 63.3512C153.284 62.4225 155.424 62.9204 156.822 64.0437C156.822 64.0437 158.885 65.6394 158.526 68.4255C158.448 69.0115 157.73 70.6882 157.663 70.591C156.952 69.5789 156.277 68.6965 155.676 68.1013C154.331 66.7626 152.331 66.2948 150.523 66.8714C149.199 67.2953 147.653 68.0341 146.482 69.3288C146.482 69.3311 149.718 64.7246 151.847 63.3512Z" fill="#D6D2BC"/>
<path d="M139.966 79.2921C139.966 79.2921 138.784 82.4326 145.528 87.2914C145.528 87.2914 146.865 88.1669 146.499 88.7251C146.047 89.4175 136.966 87.0228 139.966 79.2921Z" fill="#D6D2BC"/>
<path d="M135.367 76.2835C135.367 76.2835 132.96 78.6227 125.814 74.396C125.814 74.396 124.476 73.5229 124.11 74.081C123.656 74.7735 129.474 82.1244 135.367 76.2835Z" fill="#D6D2BC"/>
<path d="M145.286 94.3622L145.055 94.7165C144.86 95.0129 144.512 95.1496 144.183 95.0871L143.501 96.1269L143.531 96.1454L133.687 111.169L133.656 111.151L132.701 112.608C132.733 112.67 132.762 112.742 132.773 112.814C132.785 112.869 132.792 112.92 132.794 112.975C132.798 113.137 132.754 113.303 132.659 113.448L130.6 116.591C130.506 116.734 130.373 116.843 130.223 116.904C130.172 116.925 130.121 116.938 130.066 116.95C129.978 116.971 129.885 116.975 129.795 116.961L129.203 117.862C128.941 118.261 128.408 118.372 128.009 118.112L127.854 118.011C125.825 118.903 123.394 118.784 121.41 117.488L120.214 116.707C122.198 118.004 124.625 118.112 126.653 117.228L126.809 117.33C127.015 117.467 127.256 117.501 127.479 117.446C127.62 117.415 127.754 117.346 127.866 117.244C127.916 117.198 127.963 117.144 128.005 117.082L128.595 116.181C128.755 116.202 128.921 116.176 129.064 116.102C129.198 116.042 129.314 115.945 129.402 115.81L131.461 112.667C131.547 112.538 131.588 112.392 131.594 112.249C131.602 112.104 131.567 111.963 131.503 111.829L132.458 110.372L132.488 110.391L142.333 95.3603L142.303 95.3418L142.985 94.3019C143.153 94.3343 143.332 94.3112 143.487 94.244C143.634 94.1814 143.766 94.0773 143.861 93.9337L144.092 93.5794C144.199 93.4172 144.241 93.2319 144.225 93.0536C144.216 92.9054 144.164 92.7594 144.076 92.6344L158.087 71.2533C159.993 68.3444 160.617 64.7802 159.812 61.4011L159.781 61.2692C159.102 58.4158 159.066 55.1758 160.352 52.5425L162.061 49.0547L163.259 49.8398L161.55 53.3276C160.264 55.9609 160.3 59.2032 160.98 62.0542L161.01 62.1862C161.815 65.5653 161.193 69.1295 159.285 72.0384L145.277 93.4172C145.467 93.6928 145.481 94.0657 145.286 94.3622Z" fill="#D6D2BC"/>
<path opacity="0.34" d="M120.232 77.9743L120 78.3286C119.924 78.4444 119.886 78.5671 119.873 78.6945C119.871 78.7292 119.865 78.764 119.868 78.7964C119.865 78.9702 119.912 79.1323 120.012 79.2712L119.327 80.3135L119.298 80.2949L109.453 95.3187L109.483 95.3372L108.583 96.7082C108.352 96.6086 108.096 96.6225 107.881 96.729C107.751 96.7916 107.638 96.8911 107.552 97.0209L105.494 100.164C105.406 100.296 105.364 100.444 105.359 100.587C105.352 100.752 105.391 100.909 105.475 101.048L104.883 101.949C104.842 102.012 104.811 102.077 104.793 102.144C104.742 102.285 104.735 102.433 104.763 102.577C104.8 102.764 104.9 102.941 105.053 103.072C105.051 103.077 105.053 103.082 105.053 103.089C104.788 105.097 105.654 107.174 107.464 108.358L106.662 107.831C104.849 106.646 103.973 104.562 104.244 102.549C103.922 102.276 103.847 101.792 104.086 101.426L104.677 100.525C104.513 100.259 104.51 99.9159 104.694 99.6379L106.753 96.4951C106.98 96.1477 107.417 96.0274 107.785 96.1847L108.685 94.8137L108.655 94.7952L118.498 79.7715L118.528 79.79L119.209 78.7501C119.117 78.6089 119.058 78.4467 119.058 78.2777C119.054 78.1156 119.098 77.9511 119.196 77.8029L119.428 77.4485C119.525 77.3003 119.659 77.1938 119.808 77.1335C119.861 77.1104 119.912 77.0965 119.968 77.085C120.079 77.0617 120.19 77.0617 120.302 77.0827L134.31 55.7039C136.215 52.795 139.236 50.7986 142.657 50.1849L142.789 50.1594C145.678 49.6406 148.666 48.3784 150.567 46.1481L153.082 43.1884L153.882 43.7117L151.366 46.6716C149.466 48.9042 146.478 50.1641 143.59 50.6851L143.457 50.7106C140.036 51.3244 137.016 53.3207 135.11 56.2296L121.099 77.6106C121.052 77.6014 121.002 77.5991 120.948 77.5968C120.849 77.5944 120.749 77.6106 120.659 77.6454C120.491 77.701 120.338 77.8122 120.232 77.9743Z" fill="#D6D2BC"/>
<path d="M162.244 53.0151L150.58 45.3862C150.495 45.3307 150.47 45.2149 150.527 45.1292L150.792 44.7262C150.847 44.6405 150.963 44.615 151.049 44.6729L162.712 52.2995C162.797 52.355 162.823 52.4708 162.765 52.5565L162.5 52.9595C162.443 53.0475 162.33 53.0706 162.244 53.0151Z" fill="#3C7F5C"/>
<path d="M162.595 52.4755L150.933 44.8489L153.602 40.7774C153.671 40.6732 153.81 40.6431 153.917 40.7126L165.199 48.0913C165.304 48.1607 165.333 48.2997 165.264 48.4062L162.595 52.4755Z" fill="#3C7F5C"/>
<path d="M155.632 41.8357C155.514 41.7593 155.356 41.7895 155.281 41.9029L152.736 45.7891L151.044 44.6821L153.589 40.7959C153.667 40.6801 153.824 40.6499 153.94 40.7287L155.632 41.8357Z" fill="#2E6547"/>
<path d="M165.253 48.4224L162.706 52.3087L161.012 51.1994L163.557 47.3131C163.634 47.1973 163.599 47.0445 163.481 46.9657L165.173 48.0728C165.291 48.1515 165.329 48.309 165.253 48.4224Z" fill="#2E6547"/>
<path d="M164.334 47.8226L161.789 51.7088L161.012 51.2016L163.557 47.3154C163.634 47.1996 163.599 47.0467 163.481 46.968L164.257 47.4752C164.373 47.5516 164.411 47.7068 164.334 47.8226Z" fill="#36714F"/>
<path d="M154.716 41.2361L155.632 41.8335C155.514 41.7571 155.357 41.7873 155.282 41.9007L152.736 45.7869L151.818 45.1871L154.364 41.3008C154.438 41.1874 154.596 41.1573 154.716 41.2361Z" fill="#36714F"/>
<path d="M162.751 52.5795L162.662 52.7139C162.725 52.6166 162.7 52.4869 162.603 52.422L150.979 44.821C150.882 44.7585 150.752 44.784 150.687 44.8813L150.775 44.7469C150.838 44.6497 150.97 44.6219 151.068 44.6867L162.691 52.2878C162.786 52.3502 162.813 52.4823 162.751 52.5795Z" fill="#529F74"/>
<path opacity="0.3" d="M153.02 55.6761C149.144 53.2119 144.342 54.2147 145.441 55.7617C145.822 56.2944 146.12 56.8803 146.213 57.5289L146.322 58.2885C146.448 59.1639 146.25 60.0556 145.767 60.7944L132.428 81.1495C131.73 82.2148 131.886 83.6762 132.882 84.4706C134.025 85.3831 135.673 85.1006 136.454 83.9078L149.308 64.2915C150.122 63.0479 151.401 62.184 152.86 61.8899C153.562 61.7486 154.283 61.7624 154.989 61.8806C156.71 62.1677 156.286 57.7512 153.02 55.6761Z" fill="#F9F9F9"/>
<path d="M93.0496 91.7173C92.3078 91.2912 91.5011 90.9831 90.6642 90.8024L90.4996 90.7677C86.0766 89.8274 83.0839 85.3182 84.053 80.7187L84.8295 77.027C86.0419 71.2649 92.2244 68.1707 97.3149 71.1607L98.2237 71.6933C99.0397 72.1727 99.9274 72.5063 100.859 72.6846L100.931 72.6961C106.77 73.8078 109.363 80.2625 106.4 85.3877L104.58 88.5375C102.227 92.6181 96.9742 93.9777 93.0496 91.7173Z" fill="#C72209"/>
<path opacity="0.4" d="M86.2088 83.9518L86.9552 80.5636C90.4092 70.2088 95.3978 74.864 99.9437 73.8727L99.8835 73.8611C99.0999 73.7106 98.3512 73.4303 97.6604 73.0273L96.8954 72.5804C92.6069 70.0676 87.3817 72.6499 86.334 77.5088L85.6571 80.6377C85.3302 82.1454 85.5087 83.6392 86.0558 84.9523C86.0836 84.6165 86.1323 84.283 86.2088 83.9518Z" fill="#DF807D"/>
<path d="M100.463 73.7569C100.356 74.0279 99.3432 73.8936 98.1982 73.4558C97.053 73.0182 96.2092 72.4415 96.3112 72.1705C96.4132 71.8996 97.4261 72.0315 98.5759 72.4716C99.7211 72.9069 100.57 73.486 100.463 73.7569Z" fill="#81231D"/>
<path d="M99.4013 73.3516C99.3503 73.486 98.8542 73.4165 98.2932 73.2034C97.7323 72.988 97.3173 72.7078 97.3683 72.5758C97.4192 72.4414 97.9154 72.5063 98.4786 72.7217C99.0374 72.9371 99.4523 73.2173 99.4013 73.3516Z" fill="#5E130E"/>
<path d="M98.722 72.7379C98.933 72.0732 99.3874 69.8082 96.7818 67.3996C96.703 67.3255 96.5523 67.4621 96.5824 67.5779C96.7192 68.0897 96.8931 68.9189 96.8119 69.6299C96.7378 70.2968 96.8583 72.1751 98.5088 72.8792C98.5853 72.9116 98.6942 72.8398 98.722 72.7379Z" fill="#8AC166"/>
<path d="M98.1726 72.5734C98.8055 71.735 101.344 69.2199 108.435 70.225C108.646 70.2551 108.674 70.5516 108.468 70.6164C107.556 70.8966 106.142 71.4177 105.252 72.1357C104.415 72.8097 101.606 74.3035 98.27 72.9462C98.124 72.8861 98.0753 72.7008 98.1726 72.5734Z" fill="#6CA92A"/>
<path opacity="0.4" d="M89.2849 74.2965C90.1172 73.4813 91.5405 72.7263 93.8748 73.0945C94.2318 73.1524 94.3895 72.6522 94.0626 72.4947C92.1131 71.5637 89.3637 70.8874 88.5061 73.8495C88.3716 74.3081 88.9419 74.63 89.2849 74.2965Z" fill="#E8B2B1"/>
<path d="M103.69 17.7635C103.574 11.6633 99.8881 8.06423 98.3395 6.494C97.2547 5.39391 96.7887 3.23542 96.6937 1.78794C95.9844 1.48223 94.3733 1.17883 94.0464 1.16726C93.6685 1.15568 92.8131 2.33451 92.8131 2.33451C93.4877 3.37901 94.7627 7.69367 92.98 9.75258C88.2812 15.1743 91.5868 25.4804 78.4547 32.3866C71.6903 35.9463 64.8519 35.3256 60.415 35.0569C55.985 34.7882 52.2389 34.8253 51.2909 34.999C50.3474 35.1704 49.9 34.8577 49.543 35.3163C49.543 35.3163 48.5833 37.2918 48.2982 37.8778C48.0176 38.4614 48.414 38.781 49.2788 39.7931C50.1434 40.8052 51.2005 45.583 59.7775 47.7369C82.7826 53.5036 104.042 36.1871 103.69 17.7635Z" fill="#F3E35C"/>
<path d="M94.9319 2.26733C96.5082 5.58614 95.6854 8.64785 95.2541 9.82437C93.0311 15.8737 99.9321 23.8152 79.7296 36.5669C72.7869 40.9487 65.1186 39.7213 60.3524 39.4341C55.5864 39.14 50.8713 36.4326 49.8606 36.611C49.4642 36.6827 49.1513 36.6758 48.894 36.6711C48.6599 37.1482 48.428 37.6253 48.3098 37.8686C48.0293 38.4522 48.4256 38.7718 49.2904 39.7839C50.155 40.796 51.2121 45.5738 59.7892 47.7276C82.7826 53.5036 104.042 36.1894 103.69 17.7659C103.574 11.6656 99.8881 8.06655 98.3395 6.49631" fill="#ECC033"/>
<path d="M112.807 56.0282L114.775 55.0879L116.744 54.1476L116.723 56.0675L116.702 57.9897L114.754 57.0078L112.807 56.0282Z" fill="#7E65D8"/>
<path d="M120.628 56.1092L118.663 57.0495L116.694 57.9897L116.713 56.0675L116.734 54.1476L118.682 55.1272L120.628 56.1092Z" fill="#7E65D8"/>
<path d="M116.759 52.1604L117.7 54.1266L118.642 56.0929L116.717 56.0721L114.796 56.0512L115.777 54.1058L116.759 52.1604Z" fill="#7E65D8"/>
<path d="M116.679 59.9745L115.737 58.0105L114.796 56.0442L116.717 56.0627L118.642 56.0836L117.658 58.029L116.679 59.9745Z" fill="#7E65D8"/>
<path d="M15.9997 110.5L17.3512 109.853L18.7026 109.208L18.6887 110.527L18.6748 111.848L17.3372 111.174L15.9997 110.5Z" fill="#7E65D8"/>
<path d="M21.373 110.556L20.0215 111.201L18.6701 111.848L18.684 110.527L18.6979 109.208L20.0355 109.882L21.373 110.556Z" fill="#7E65D8"/>
<path d="M18.7141 107.843L19.361 109.194L20.0077 110.544L18.6864 110.529L17.3651 110.516L18.0397 109.179L18.7141 107.843Z" fill="#7E65D8"/>
<path d="M18.6586 113.212L18.0118 111.862L17.3651 110.512L18.6864 110.525L20.0077 110.539L19.3331 111.875L18.6586 113.212Z" fill="#7E65D8"/>
<path d="M11.7969 71.7512L13.765 70.8109L15.733 69.8706L15.7122 71.7928L15.6937 73.7129L13.7465 72.7331L11.7969 71.7512Z" fill="#5D38BE"/>
<path d="M19.6182 71.8323L17.6525 72.7726L15.6844 73.7129L15.7052 71.7928L15.7238 69.8706L17.671 70.8525L19.6182 71.8323Z" fill="#5D38BE"/>
<path d="M15.7494 67.8859L16.6905 69.8499L17.6317 71.8161L15.7076 71.7976L13.7859 71.7768L14.7665 69.8313L15.7494 67.8859Z" fill="#5D38BE"/>
<path d="M15.6683 75.7L14.727 73.7337L13.7859 71.7675L15.7076 71.7883L17.6317 71.8092L16.6488 73.7546L15.6683 75.7Z" fill="#5D38BE"/>
<path d="M62.1652 83.4956L64.131 82.5553L66.0991 81.615L66.0782 83.5349L66.0597 85.4572L64.1124 84.4752L62.1652 83.4956Z" fill="#5D38BE"/>
<path d="M69.9843 83.5766L68.0185 84.5169L66.0505 85.4572L66.0713 83.5349L66.0898 81.615L68.0371 82.5946L69.9843 83.5766Z" fill="#5D38BE"/>
<path d="M66.1153 79.6279L67.0565 81.5941L67.9976 83.5604L66.0736 83.5396L64.1519 83.5211L65.1348 81.5733L66.1153 79.6279Z" fill="#5D38BE"/>
<path d="M66.0342 87.442L65.093 85.478L64.1519 83.5117L66.0759 83.5326L67.9976 83.5512L67.0147 85.4965L66.0342 87.442Z" fill="#5D38BE"/>
<path d="M156.219 120.037L157.551 119.401L158.885 118.763L158.871 120.065L158.856 121.366L157.538 120.702L156.219 120.037Z" fill="#FFD100"/>
<path d="M161.518 120.092L160.185 120.73L158.852 121.366L158.866 120.065L158.88 118.763L160.199 119.428L161.518 120.092Z" fill="#FFD100"/>
<path d="M158.896 117.416L159.533 118.75L160.171 120.081L158.868 120.067L157.565 120.054L158.23 118.735L158.896 117.416Z" fill="#FFD100"/>
<path d="M158.841 122.712L158.203 121.381L157.565 120.048L158.868 120.06L160.171 120.074L159.506 121.394L158.841 122.712Z" fill="#FFD100"/>
<path d="M90.9401 49.6105L92.273 48.9736L93.606 48.3367L93.592 49.6383L93.5781 50.9399L92.2591 50.2751L90.9401 49.6105Z" fill="#FFD100"/>
<path d="M96.2392 49.6638L94.9063 50.303L93.5734 50.9399L93.5872 49.6383L93.6011 48.3367L94.9202 49.0014L96.2392 49.6638Z" fill="#FFD100"/>
<path d="M93.6176 46.9889L94.255 48.3229L94.8925 49.6546L93.5897 49.6406L92.2869 49.6267L92.9522 48.309L93.6176 46.9889Z" fill="#FFD100"/>
<path d="M93.5619 52.2856L92.9245 50.9539L92.2869 49.6222L93.5897 49.6338L94.8925 49.6476L94.2273 50.9678L93.5619 52.2856Z" fill="#FFD100"/>
<path d="M44.7515 177.191L44.6517 120.224C44.6494 118.67 45.9082 117.408 47.4637 117.406L132.687 117.257C134.242 117.255 135.506 118.513 135.509 120.067L135.608 177.033C135.61 178.587 134.352 179.849 132.796 179.851L47.5726 180C46.0171 180.002 44.7538 178.745 44.7515 177.191Z" fill="#5D38BE"/>
<path d="M62.4317 129.161L79.3123 97.3497C81.4148 93.3848 85.5365 90.9043 90.029 90.895C94.5193 90.8881 98.6502 93.3547 100.767 97.3127L117.759 129.067" stroke="#5D38BE" stroke-width="3" stroke-miterlimit="10"/>
<path d="M44.6517 167.424L44.6633 177.191C44.6656 178.745 45.9291 180.002 47.4845 180L132.708 179.851C134.263 179.849 135.522 178.587 135.52 177.033L135.459 122.958C116.736 143.54 81.1507 163.48 44.6517 167.424Z" fill="#412FA7"/>
<path d="M89.665 145.235C89.6604 142.488 87.4072 140.693 84.1201 140.698C80.9952 140.702 77.7313 142.949 77.7405 147.95C77.7475 151.761 80.0587 154.577 84.0528 154.571C86.2991 154.566 88.7632 153.29 89.3868 152.406C89.3914 152.4 88.9603 150.764 87.792 150.766C87.1777 150.766 86.7256 151.004 86.2249 151.213C85.701 151.43 85.0797 151.62 84.28 151.623C83.165 151.625 81.2432 151.182 81.2386 148.786C81.2386 148.786 82.1357 149.044 84.1919 149.04C88.6079 149.031 89.6696 147.164 89.665 145.235ZM84.2591 143.677C85.7798 143.673 86.5031 144.496 86.5054 145.254C86.5077 146.147 85.7079 146.72 84.2568 146.722C82.1473 146.726 81.3429 146.432 81.3429 146.428C81.3406 145.145 82.342 143.681 84.2591 143.677Z" fill="#FFD100"/>
<path d="M97.8851 151.618C96.3645 151.62 95.5809 150.342 95.4372 149.79C95.2912 149.239 95.1891 148.468 95.1868 147.658L95.2078 143.544L96.3088 143.542C97.1966 143.54 97.8828 143.278 98.365 142.757C98.8472 142.234 99.0882 141.539 99.0859 140.67L95.2007 140.677L95.1683 138.852C95.1683 138.274 95.1706 137.806 95.1799 137.449C95.1891 137.092 95.203 136.807 95.2216 136.594C95.2402 136.363 95.2587 136.179 95.2772 136.042C94.0996 136.045 93.2002 136.298 92.5836 136.8C91.9669 137.302 91.6586 138.134 91.6609 139.292L91.6471 148.406C91.654 152.131 93.4343 154.569 96.8374 154.564C98.5157 154.561 99.7374 153.658 99.735 152.294C99.735 151.81 99.6701 151.56 99.6214 151.404C99.3293 151.486 98.7846 151.616 97.8851 151.618Z" fill="#FFD100"/>
<path d="M102.47 139.647C102.749 139.786 103.045 139.853 103.363 139.853C104.095 139.851 104.67 139.505 105.085 138.81C105.263 138.493 105.352 138.157 105.352 137.8C105.352 137.465 105.271 137.147 105.113 136.851C104.954 136.555 104.717 136.328 104.399 136.168C104.121 136.01 103.833 135.931 103.537 135.931C103.201 135.931 102.874 136.027 102.556 136.214C102.239 136.404 101.993 136.666 101.814 137.002C101.636 137.298 101.548 137.636 101.548 138.012C101.548 138.347 101.629 138.66 101.787 138.944C101.946 139.236 102.174 139.469 102.47 139.647Z" fill="#FFD100"/>
<path d="M106.406 151.778C105.656 151.78 105.171 151.233 105.169 150.335L105.158 143.759C105.158 143.181 105.16 142.713 105.169 142.356C105.178 141.999 105.192 141.714 105.21 141.502C105.229 141.27 105.248 141.086 105.269 140.95C104.07 140.953 103.161 141.205 102.545 141.708C101.926 142.21 101.62 143.041 101.622 144.2L101.604 150.898C101.608 153.294 103.147 154.613 105.088 154.531C106.309 154.48 107.369 153.897 107.366 152.609C107.366 152.072 107.278 151.643 107.278 151.643C106.995 151.724 106.797 151.778 106.406 151.778Z" fill="#FFD100"/>
<path d="M115.09 140.964C114.355 140.966 113.616 141.05 112.874 141.214C112.13 141.379 111.46 141.694 110.862 142.159C110.264 142.623 109.777 143.266 109.401 144.089C109.026 144.91 108.84 145.966 108.842 147.259L108.85 151.025C108.852 152.183 109.008 153.262 109.708 153.792C110.473 154.369 111.358 154.395 112.536 154.392C112.517 154.277 112.496 153.945 112.478 153.714C112.457 153.5 112.442 153.216 112.434 152.859C112.423 152.502 112.417 152.034 112.417 151.455L112.408 146.634C112.406 145.494 112.587 144.03 114.601 143.859C115.733 143.761 116.727 143.329 116.725 142.104C116.725 141.819 116.662 141.284 116.515 140.969L115.09 140.964Z" fill="#FFD100"/>
<path d="M69.7872 140.723C65.6725 140.731 63.5213 143.614 63.5259 147.12C63.5306 150.367 65.5218 153.391 69.1172 153.385C70.9833 153.383 72.0658 152.586 72.3302 152.354L72.3325 153.968C72.3348 155.833 71.6115 157.079 69.7269 157.081C68.8205 157.084 68.1482 156.838 67.527 156.541C66.973 156.278 66.5626 155.974 66.0086 155.974C64.6085 155.976 64.2237 157.704 64.2306 157.714C65.2784 159.069 67.6916 160.058 69.713 160.055C73.6885 160.048 75.8746 157.727 75.8676 153.135C75.8676 153.135 75.8584 148.507 75.8584 147.759C75.8537 143.574 73.9968 140.716 69.7872 140.723ZM69.7872 150.27C68.2456 150.272 67.0634 149.302 67.0587 147.164C67.0541 144.885 68.2596 143.7 69.7755 143.698C71.2661 143.694 72.3603 144.591 72.3649 146.978C72.3695 149.434 71.1873 150.268 69.7872 150.27Z" fill="#FFD100"/>
</g>
<defs>
<clipPath id="clip0">
<rect width="177.907" height="180" fill="white"/>
</clipPath>
</defs>
</svg>
